<svg xmlns="http://www.w3.org/2000/svg" viewBox="0 0 46.99 48.49" id="task"><path fill="#4cc9f0" d="M44.14 6.93h-2.91v3.86a1.5 1.5 0 0 1-3 0V6.93H25v3.86a1.5 1.5 0 0 1-3 0V6.93H8.77v3.86a1.5 1.5 0 0 1-3 0V6.93H2.85A2.85 2.85 0 0 0 0 9.78v35.86a2.86 2.86 0 0 0 2.85 2.85h41.29a2.85 2.85 0 0 0 2.85-2.85V9.78a2.84 2.84 0 0 0-2.85-2.85Zm-7.52 13.91L20.76 36.7a1.49 1.49 0 0 1-1.06.44 1.51 1.51 0 0 1-1.06-.44l-8.27-8.27a1.503 1.503 0 0 1 2.13-2.12l7.2 7.2 14.8-14.79a1.5 1.5 0 0 1 2.12 2.12Z"></path><path fill="#4361ee" d="M8.77 1.5v5.43h-3V1.5a1.5 1.5 0 0 1 3 0zM25 1.5v5.43h-3V1.5a1.5 1.5 0 0 1 3 0zm16.23 0v5.43h-3V1.5a1.5 1.5 0 0 1 3 0z"></path></svg>